# xmcd CD database file
#
# Track frame offsets:
#	150
#	25975
#	43850
#	63995
#
# Disc length: 1093 seconds
#
# Revision: 0
# Processed by: cddbd v1.5.1PL0 Copyright (c) Steve Scherf et al.
# Submitted via: CDex 1.51
#
DISCID=30044304
DTITLE=イオシス - ESCAPE
DYEAR=1900
DGENRE=未分類 (日本)
TTITLE0=ESCAP
TTITLE1=get on
TTITLE2=LAST REFLECTION
TTITLE3=ESCAPE (PIANO MIX)
EXTD=
EXTT0=
EXTT1=
EXTT2=
EXTT3=
PLAYORDER=
